HIERARCHY
ROOT Hips
{
	OFFSET -41.156204 0.025330 1.336584
	CHANNELS 6 Xposition Yposition Zposition Zrotation Xrotation Yrotation
	JOINT Spine
	{
		OFFSET 0.000000 0.000000 0.000000
		CHANNELS 6 Xposition Yposition Zposition Zrotation Xrotation Yrotation
		JOINT Spine1
		{
			OFFSET 19.000000 0.000000 0.000000
			CHANNELS 3 Zrotation Xrotation Yrotation
			JOINT Neck
			{
				OFFSET 22.500000 0.000000 0.600001
				CHANNELS 6 Xposition Yposition Zposition Zrotation Xrotation Yrotation
				JOINT Head
				{
					OFFSET 14.000000 0.000000 0.030878
					CHANNELS 6 Xposition Yposition Zposition Zrotation Xrotation Yrotation
					End Site
					{
						OFFSET 17.000000 0.000000 0.000000
					}
				}
			}
			JOINT LeftShoulder
			{
				OFFSET 19.799999 -4.299988 3.700000
				CHANNELS 6 Xposition Yposition Zposition Zrotation Xrotation Yrotation
				JOINT LeftArm
				{
					OFFSET 8.000000 0.000000 0.000000
					CHANNELS 6 Xposition Yposition Zposition Zrotation Xrotation Yrotation
					JOINT LeftForeArm
					{
						OFFSET 15.200001 0.000000 0.000000
						CHANNELS 6 Xposition Yposition Zposition Zrotation Xrotation Yrotation
						JOINT LeftHand
						{
							OFFSET 17.799999 0.000000 0.000000
							CHANNELS 6 Xposition Yposition Zposition Zrotation Xrotation Yrotation
							End Site
							{
								OFFSET 7.199997 0.000000 0.000000
							}
						}
					}
				}
			}
			JOINT RightShoulder
			{
				OFFSET 19.799999 4.299988 3.699999
				CHANNELS 6 Xposition Yposition Zposition Zrotation Xrotation Yrotation
				JOINT RightArm
				{
					OFFSET 8.000000 -0.151642 0.000000
					CHANNELS 6 Xposition Yposition Zposition Zrotation Xrotation Yrotation
					JOINT RightForeArm
					{
						OFFSET 15.200001 0.000000 0.000000
						CHANNELS 6 Xposition Yposition Zposition Zrotation Xrotation Yrotation
						JOINT RightHand
						{
							OFFSET 17.799999 0.000000 0.000000
							CHANNELS 6 Xposition Yposition Zposition Zrotation Xrotation Yrotation
							End Site
							{
								OFFSET 7.199997 0.000000 0.000000
							}
						}
					}
				}
			}
		}
	}
	JOINT LeftUpLeg
	{
		OFFSET 5.984253 -4.788788 -7.665999
		CHANNELS 6 Xposition Yposition Zposition Zrotation Xrotation Yrotation
		JOINT LeftLeg
		{
			OFFSET 15.999998 0.000000 0.000000
			CHANNELS 6 Xposition Yposition Zposition Zrotation Xrotation Yrotation
			JOINT LeftFoot
			{
				OFFSET 18.000000 0.000000 0.000000
				CHANNELS 6 Xposition Yposition Zposition Zrotation Xrotation Yrotation
				End Site
				{
					OFFSET 0.000000 0.000000 -10.800000
				}
			}
		}
	}
	JOINT RightUpLeg
	{
		OFFSET 5.984253 4.788788 -7.665980
		CHANNELS 6 Xposition Yposition Zposition Zrotation Xrotation Yrotation
		JOINT RightLeg
		{
			OFFSET 15.999998 0.000000 0.000000
			CHANNELS 6 Xposition Yposition Zposition Zrotation Xrotation Yrotation
			JOINT RightFoot
			{
				OFFSET 18.000000 0.000000 0.000000
				CHANNELS 6 Xposition Yposition Zposition Zrotation Xrotation Yrotation
				End Site
				{
					OFFSET 0.000000 0.000000 -10.800000
				}
			}
		}
	}
	JOINT Tail
	{
		OFFSET 6.836960 0.000000 -0.722574
		CHANNELS 6 Xposition Yposition Zposition Zrotation Xrotation Yrotation
		JOINT Tail1
		{
			OFFSET 12.000000 0.000000 0.000000
			CHANNELS 6 Xposition Yposition Zposition Zrotation Xrotation Yrotation
			End Site
			{
				OFFSET 12.000000 0.000000 0.000000
			}
		}
	}
}
MOTION
Frames: 4
Frame Time: 0.041667
-85.199219 -23.035641 38.493210 68.109834 1.873418 3.815054 0.000006 -0.000004 -0.000002 4.742484 0.437034 173.956900 15.636521 -3.700953 -2.942388 22.499990 0.000002 0.599999 -1.274451 -0.896138 12.640250 14.000002 0.000004 0.030882 -44.992338 105.981805 62.520116 19.799992 -4.299987 3.700001 16.185749 -121.194644 56.629880 8.000003 -0.000006 0.000002 -49.564784 146.812621 -43.820650 15.200009 -0.000000 0.000005 -2.502067 5.719039 67.239811 17.799995 0.000001 0.000014 -14.225931 -0.263525 9.935078 19.799986 4.299983 3.700001 -14.371500 -41.964293 -74.973880 7.999997 -0.151648 -0.000008 -65.340390 0.000176 -65.440377 15.199992 -0.000015 -0.000001 14.159578 -9.689814 52.807990 17.799999 -0.000009 -0.000003 1.470533 1.261076 11.493591 5.984255 -4.788791 -7.666001 12.366262 -8.587228 123.471392 15.999998 0.000004 -0.000001 19.341656 -4.030733 -83.808600 18.000002 0.000000 -0.000000 -8.748635 0.717184 -33.196785 5.984262 4.788782 -7.665982 -1.318355 -2.293466 131.142378 16.000000 -0.000002 0.000010 -6.663117 5.535546 -100.510783 17.999998 -0.000003 0.000003 -1.314921 0.446271 -33.749085 6.836961 -0.000001 -0.722577 -10.562562 23.796174 40.758327 12.000002 0.000000 0.000004 0.610563 -33.802886 -9.027599 
-85.984116 -24.666655 38.775307 69.546257 2.043072 4.799229 0.000001 0.000002 0.000001 3.066126 0.281773 172.567748 15.148309 -3.543099 -2.935341 22.500011 0.000002 0.600000 -1.125177 -1.186916 13.112115 14.000000 0.000009 0.030878 -45.870707 106.131536 63.625309 19.800005 -4.299987 3.699998 16.494905 -121.957044 56.947785 7.999998 0.000012 0.000018 -51.865670 148.108021 -44.717870 15.200004 -0.000001 0.000008 -6.552145 5.392288 67.194499 17.800001 0.000009 0.000012 -15.084825 -0.653431 11.930919 19.800009 4.299990 3.699997 -14.752020 -42.691923 -73.943901 7.999995 -0.151640 0.000008 -66.889777 0.007001 -65.542878 15.199996 -0.000002 0.000008 13.517515 -9.783684 50.875238 17.799990 -0.000001 -0.000001 0.315400 1.285916 9.664833 5.984258 -4.788781 -7.665998 11.289941 -9.562436 119.851010 15.999999 0.000006 0.000005 19.439495 -3.341033 -83.625763 17.999998 -0.000002 0.000003 -8.856581 0.827102 -33.800120 5.984255 4.788784 -7.665983 -3.765172 -2.298081 133.777711 15.999996 -0.000005 0.000006 -6.054076 5.760771 -98.425369 17.999996 -0.000010 0.000006 -1.447738 0.430920 -33.826491 6.836960 -0.000000 -0.722572 -9.830432 23.615919 37.933569 11.999992 -0.000003 -0.000003 0.813027 -32.946077 -9.451596 
-86.757614 -26.314665 39.024117 70.783313 2.402086 5.796909 -0.000001 0.000004 0.000001 0.947890 0.249870 169.564705 13.768116 -2.869045 0.438893 22.500011 0.000001 0.599998 -0.891691 -1.180624 11.185122 14.000003 -0.000005 0.030882 -46.168852 106.400154 63.975670 19.800013 -4.299993 3.699996 17.023907 -124.988569 59.709589 8.000002 -0.000001 0.000002 -51.768251 149.235371 -48.505329 15.199997 0.000001 0.000002 -8.532096 5.782824 68.596929 17.799995 0.000002 0.000003 -16.299592 -1.150930 14.297336 19.800011 4.299988 3.699994 -14.428162 -42.342648 -74.743395 8.000004 -0.151634 -0.000001 -66.206513 1.147768 -66.362767 15.200000 0.000000 -0.000002 12.970578 -9.175870 50.603666 17.799997 0.000008 -0.000002 -5.348062 1.686674 6.164136 5.984254 -4.788786 -7.665995 10.155357 -10.246037 116.806084 15.999991 0.000006 -0.000007 18.411682 -2.602943 -83.830504 18.000002 0.000003 0.000000 -8.625988 1.149583 -36.217935 5.984257 4.788782 -7.665981 -5.938880 -2.341188 135.625140 15.999991 -0.000008 0.000001 -6.437403 6.220996 -94.594575 18.000010 -0.000002 0.000001 -1.377299 0.486428 -35.046869 6.836965 -0.000002 -0.722569 -8.724487 22.811652 34.383965 11.999998 -0.000002 0.000003 1.118743 -31.472344 -9.973098 
-87.475922 -27.969664 39.157707 71.730749 2.912519 6.575258 0.000004 0.000001 -0.000001 -0.745803 0.089841 168.344178 12.682700 -2.433884 0.923945 22.500019 -0.000007 0.600001 -0.650677 -1.451079 10.722004 13.999994 -0.000001 0.030883 -47.374752 106.459351 65.114140 19.800016 -4.299990 3.700002 17.300611 -126.624576 60.792905 8.000000 0.000002 -0.000001 -51.777205 147.587766 -50.900848 15.200001 -0.000000 0.000006 -11.083627 6.037068 68.672074 17.799994 0.000008 0.000005 -16.332359 -1.725908 17.137908 19.800016 4.299987 3.699998 -14.733078 -43.930687 -73.576225 8.000007 -0.151640 -0.000002 -63.838698 7.562684 -67.296563 15.200001 0.000004 0.000007 8.834340 -3.252071 56.186000 17.799999 0.000009 -0.000004 -13.640027 2.763605 -4.648281 5.984257 -4.788792 -7.665999 8.944300 -11.519397 113.507246 16.000000 0.000000 -0.000001 18.607981 -1.823976 -83.498079 18.000000 -0.000004 -0.000001 -8.612003 1.329453 -37.459377 5.984261 4.788785 -7.665983 -7.459763 -2.320621 137.502459 15.999989 -0.000004 0.000004 -6.851055 6.719799 -90.301282 17.999998 0.000007 -0.000002 -1.238151 0.620906 -37.180200 6.836963 0.000005 -0.722573 -7.591812 21.434676 30.740479 11.999992 -0.000002 -0.000002 1.256652 -29.479998 -10.678127 
